<svg xmlns="http://www.w3.org/2000/svg" viewBox="0 0 1024 1024" role="img" aria-label="赛博包工头应用图标">
  <defs>
    <linearGradient id="bg" x1="162" y1="96" x2="862" y2="928" gradientUnits="userSpaceOnUse">
      <stop offset="0" stop-color="#0f172a"/>
      <stop offset="0.52" stop-color="#064e3b"/>
      <stop offset="1" stop-color="#022c22"/>
    </linearGradient>
    <linearGradient id="panel" x1="280" y1="224" x2="744" y2="816" gradientUnits="userSpaceOnUse">
      <stop offset="0" stop-color="#f8fafc"/>
      <stop offset="1" stop-color="#d1fae5"/>
    </linearGradient>
    <linearGradient id="accent" x1="310" y1="300" x2="730" y2="730" gradientUnits="userSpaceOnUse">
      <stop offset="0" stop-color="#34d399"/>
      <stop offset="1" stop-color="#0d9488"/>
    </linearGradient>
    <filter id="shadow" x="-20%" y="-20%" width="140%" height="140%">
      <feDropShadow dx="0" dy="28" stdDeviation="34" flood-color="#020617" flood-opacity="0.34"/>
    </filter>
  </defs>

  <rect width="1024" height="1024" rx="220" fill="url(#bg)"/>
  <path d="M178 716V308c0-72 58-130 130-130h408c72 0 130 58 130 130v408c0 72-58 130-130 130H308c-72 0-130-58-130-130Z" fill="#ecfeff" opacity="0.08"/>
  <path d="M220 700V324c0-58 46-104 104-104h376c58 0 104 46 104 104v376c0 58-46 104-104 104H324c-58 0-104-46-104-104Z" fill="#020617" opacity="0.18"/>

  <g filter="url(#shadow)">
    <path d="M512 188 770 337v298L512 784 254 635V337l258-149Z" fill="url(#panel)"/>
    <path d="M512 238 727 362v249L512 735 297 611V362l215-124Z" fill="#052e2b"/>
  </g>

  <path d="M512 286 685 386v201L512 687 339 587V386l173-100Z" fill="#0f172a"/>
  <path d="M512 326 650 406v161L512 646 374 567V406l138-80Z" fill="#ecfeff"/>

  <path d="M512 372 610 428v114l-98 57-98-57V428l98-56Z" fill="url(#accent)"/>
  <path d="M512 414 574 449v72l-62 36-62-36v-72l62-35Z" fill="#022c22"/>

  <path d="M332 512h116" stroke="#34d399" stroke-width="34" stroke-linecap="round"/>
  <path d="M576 512h116" stroke="#34d399" stroke-width="34" stroke-linecap="round"/>
  <path d="M512 330v116" stroke="#34d399" stroke-width="34" stroke-linecap="round"/>
  <path d="M512 578v116" stroke="#34d399" stroke-width="34" stroke-linecap="round"/>

  <circle cx="512" cy="512" r="54" fill="#ecfeff"/>
  <circle cx="512" cy="512" r="28" fill="#059669"/>
  <circle cx="512" cy="512" r="11" fill="#ecfeff"/>

  <path d="M390 389h244" stroke="#99f6e4" stroke-width="26" stroke-linecap="round" opacity="0.82"/>
  <path d="M390 635h244" stroke="#99f6e4" stroke-width="26" stroke-linecap="round" opacity="0.82"/>
  <path d="M324 336h376" stroke="#ffffff" stroke-width="18" stroke-linecap="round" opacity="0.42"/>
</svg>
